!!index array str
 "corona"
!entry.corona.unit.atoms table  str name  str type  int typex  int resx  int flags  int seq  int elmnt  dbl chg
 "C1" "Cg" 0 1 131072 1 6 0.433000
 "O2" "Oh" 0 1 131072 2 8 -0.441401
 "C3" "Cg" 0 1 131072 3 6 0.245000
 "O4" "Oh" 0 1 131072 4 8 -0.717000
 "C5" "Cg" 0 1 131072 5 6 0.252000
 "O6" "Oh" 0 1 131072 6 8 -0.696000
 "C7" "Cg" 0 1 131072 7 6 0.326000
 "O8" "Oh" 0 1 131072 8 8 -0.733000
 "C9" "Cg" 0 1 131072 9 6 0.276000
 "O10" "Os" 0 1 131072 10 8 -0.507000
 "C11" "Cg" 0 1 131072 11 6 0.266000
 "O12" "Oh" 0 1 131072 12 8 -0.688000
 "H13" "H2" 0 1 131072 13 1 0.000000
 "H14" "H1" 0 1 131072 14 1 0.000000
 "H15" "Ho" 0 1 131072 15 1 0.446000
 "H16" "H1" 0 1 131072 16 1 0.000000
 "H17" "Ho" 0 1 131072 17 1 0.431000
 "H18" "H1" 0 1 131072 18 1 0.000000
 "H19" "Ho" 0 1 131072 19 1 0.438000
 "H20" "H1" 0 1 131072 20 1 0.000000
 "H21" "H1" 0 1 131072 21 1 0.000000
 "H22" "H1" 0 1 131072 22 1 0.000000
 "H23" "Ho" 0 1 131072 23 1 0.422000
 "Cl24" "cl" 0 1 131072 24 17 -0.074783
 "C25" "ca" 0 1 131072 25 6 0.457663
 "C26" "ca" 0 1 131072 26 6 -0.132914
 "C27" "ca" 0 1 131072 27 6 0.245018
 "C28" "cp" 0 1 131072 28 6 -0.338323
 "C29" "ca" 0 1 131072 29 6 0.321044
 "C30" "ca" 0 1 131072 30 6 -0.227991
 "C31" "cp" 0 1 131072 31 6 -0.081962
 "C32" "ca" 0 1 131072 32 6 0.056627
 "C33" "ca" 0 1 131072 33 6 0.221909
 "C34" "ca" 0 1 131072 34 6 -0.622867
 "C35" "ca" 0 1 131072 35 6 0.212792
 "C36" "ca" 0 1 131072 36 6 0.073787
 "C37" "cg" 0 1 131072 37 6 0.747132
 "N38" "n1" 0 1 131072 38 7 -0.609732
 "H39" "ha" 0 1 131072 39 1 0.000000
 "H40" "ha" 0 1 131072 40 1 0.000000
 "H41" "ha" 0 1 131072 41 1 0.000000
 "H42" "ha" 0 1 131072 42 1 0.000000
 "H43" "ha" 0 1 131072 43 1 0.000000
 "H44" "ha" 0 1 131072 44 1 0.000000
 "H45" "ha" 0 1 131072 45 1 0.000000
!entry.corona.unit.atomspertinfo table  str pname  str ptype  int ptypex  int pelmnt  dbl pchg
 "C1" "Cg" 0 -1 0.000000
 "O2" "Oh" 0 -1 0.000000
 "C3" "Cg" 0 -1 0.000000
 "O4" "Oh" 0 -1 0.000000
 "C5" "Cg" 0 -1 0.000000
 "O6" "Oh" 0 -1 0.000000
 "C7" "Cg" 0 -1 0.000000
 "O8" "Oh" 0 -1 0.000000
 "C9" "Cg" 0 -1 0.000000
 "O10" "Os" 0 -1 0.000000
 "C11" "Cg" 0 -1 0.000000
 "O12" "Oh" 0 -1 0.000000
 "H13" "H2" 0 -1 0.000000
 "H14" "H1" 0 -1 0.000000
 "H15" "Ho" 0 -1 0.000000
 "H16" "H1" 0 -1 0.000000
 "H17" "Ho" 0 -1 0.000000
 "H18" "H1" 0 -1 0.000000
 "H19" "Ho" 0 -1 0.000000
 "H20" "H1" 0 -1 0.000000
 "H21" "H1" 0 -1 0.000000
 "H22" "H1" 0 -1 0.000000
 "H23" "Ho" 0 -1 0.000000
 "Cl24" "cl" 0 -1 0.000000
 "C25" "ca" 0 -1 0.000000
 "C26" "ca" 0 -1 0.000000
 "C27" "ca" 0 -1 0.000000
 "C28" "cp" 0 -1 0.000000
 "C29" "ca" 0 -1 0.000000
 "C30" "ca" 0 -1 0.000000
 "C31" "cp" 0 -1 0.000000
 "C32" "ca" 0 -1 0.000000
 "C33" "ca" 0 -1 0.000000
 "C34" "ca" 0 -1 0.000000
 "C35" "ca" 0 -1 0.000000
 "C36" "ca" 0 -1 0.000000
 "C37" "cg" 0 -1 0.000000
 "N38" "n1" 0 -1 0.000000
 "H39" "ha" 0 -1 0.000000
 "H40" "ha" 0 -1 0.000000
 "H41" "ha" 0 -1 0.000000
 "H42" "ha" 0 -1 0.000000
 "H43" "ha" 0 -1 0.000000
 "H44" "ha" 0 -1 0.000000
 "H45" "ha" 0 -1 0.000000
!entry.corona.unit.boundbox array dbl
 -1.000000
 0.000000
 0.000000
 0.000000
 0.000000
!entry.corona.unit.childsequence single int
 2
!entry.corona.unit.connect array int
 0
 0
!entry.corona.unit.connectivity table  int atom1x  int atom2x  int flags
 1 2 1
 1 3 1
 1 10 1
 1 13 1
 2 25 1
 3 4 1
 3 5 1
 3 14 1
 4 15 1
 5 6 1
 5 7 1
 5 16 1
 6 17 1
 7 8 1
 7 9 1
 7 18 1
 8 19 1
 9 10 1
 9 11 1
 9 20 1
 11 12 1
 11 21 1
 11 22 1
 12 23 1
 24 30 1
 25 26 1
 25 30 1
 26 27 1
 26 39 1
 27 28 1
 27 40 1
 28 29 1
 28 31 1
 29 30 1
 29 41 1
 31 32 1
 31 36 1
 32 33 1
 32 42 1
 33 34 1
 33 43 1
 34 35 1
 34 37 1
 35 36 1
 35 44 1
 36 45 1
 37 38 1
!entry.corona.unit.hierarchy table  str abovetype  int abovex  str belowtype  int belowx
 "U" 0 "R" 1
 "R" 1 "A" 1
 "R" 1 "A" 2
 "R" 1 "A" 3
 "R" 1 "A" 4
 "R" 1 "A" 5
 "R" 1 "A" 6
 "R" 1 "A" 7
 "R" 1 "A" 8
 "R" 1 "A" 9
 "R" 1 "A" 10
 "R" 1 "A" 11
 "R" 1 "A" 12
 "R" 1 "A" 13
 "R" 1 "A" 14
 "R" 1 "A" 15
 "R" 1 "A" 16
 "R" 1 "A" 17
 "R" 1 "A" 18
 "R" 1 "A" 19
 "R" 1 "A" 20
 "R" 1 "A" 21
 "R" 1 "A" 22
 "R" 1 "A" 23
 "R" 1 "A" 24
 "R" 1 "A" 25
 "R" 1 "A" 26
 "R" 1 "A" 27
 "R" 1 "A" 28
 "R" 1 "A" 29
 "R" 1 "A" 30
 "R" 1 "A" 31
 "R" 1 "A" 32
 "R" 1 "A" 33
 "R" 1 "A" 34
 "R" 1 "A" 35
 "R" 1 "A" 36
 "R" 1 "A" 37
 "R" 1 "A" 38
 "R" 1 "A" 39
 "R" 1 "A" 40
 "R" 1 "A" 41
 "R" 1 "A" 42
 "R" 1 "A" 43
 "R" 1 "A" 44
 "R" 1 "A" 45
!entry.corona.unit.name single str
 "corona"
!entry.corona.unit.positions table  dbl x  dbl y  dbl z
 -2.284000 7.742000 9.991000
 -3.285000 8.761000 10.117000
 -1.059000 8.436000 9.492000
 -0.058000 7.440000 9.406000
 -1.352000 9.046000 8.083000
 -0.102000 9.577000 7.571000
 -1.831000 7.964000 7.142000
 -2.181000 8.586000 5.899000
 -3.075000 7.338000 7.726000
 -2.784000 6.767000 9.022000
 -3.618000 6.159000 6.900000
 -2.644000 5.130000 6.771000
 -2.086000 7.271000 10.954000
 -0.762000 9.221000 10.187000
 0.094000 7.041000 10.310000
 -2.102000 9.833000 8.162000
 0.576000 8.844000 7.520000
 -1.055000 7.211000 7.002000
 -2.544000 7.896000 5.272000
 -3.850000 8.098000 7.830000
 -4.383000 5.626000 7.368000
 -3.778000 6.382000 5.893000
 -3.022000 4.378000 6.231000
 -5.156000 11.102000 10.012000
 -4.549000 8.482000 10.607000
 -4.885000 7.212000 11.110000
 -6.178000 6.964000 11.606000
 -7.184000 7.968000 11.610000
 -6.816000 9.238000 11.093000
 -5.525000 9.494000 10.609000
 -8.578000 7.704000 12.131000
 -9.422000 8.763000 12.561000
 -10.721000 8.525000 13.041000
 -11.217000 7.215000 13.120000
 -10.409000 6.147000 12.705000
 -9.115000 6.390000 12.212000
 -12.545000 6.973000 13.611000
 -13.609000 6.775000 14.017000
 -4.152000 6.414000 11.140000
 -6.382000 5.973000 12.001000
 -7.532000 10.048000 11.045000
 -9.075000 9.789000 12.537000
 -11.340000 9.362000 13.356000
 -10.788000 5.129000 12.758000
 -8.543000 5.533000 11.879000
!entry.corona.unit.residueconnect table  int c1x  int c2x  int c3x  int c4x  int c5x  int c6x
 0 0 0 0 0 0
!entry.corona.unit.residues table  str name  int seq  int childseq  int startatomx  str restype  int imagingx
 "CWK" 1 46 1 "?" 0
!entry.corona.unit.solventcap array dbl
 -1.000000
 0.0
 0.0
 0.0
 0.0
!entry.corona.unit.velocities table  dbl x  dbl y  dbl z
 0.0 0.0 0.0
 0.0 0.0 0.0
 0.0 0.0 0.0
 0.0 0.0 0.0
 0.0 0.0 0.0
 0.0 0.0 0.0
 0.0 0.0 0.0
 0.0 0.0 0.0
 0.0 0.0 0.0
 0.0 0.0 0.0
 0.0 0.0 0.0
 0.0 0.0 0.0
 0.0 0.0 0.0
 0.0 0.0 0.0
 0.0 0.0 0.0
 0.0 0.0 0.0
 0.0 0.0 0.0
 0.0 0.0 0.0
 0.0 0.0 0.0
 0.0 0.0 0.0
 0.0 0.0 0.0
 0.0 0.0 0.0
 0.0 0.0 0.0
 0.0 0.0 0.0
 0.0 0.0 0.0
 0.0 0.0 0.0
 0.0 0.0 0.0
 0.0 0.0 0.0
 0.0 0.0 0.0
 0.0 0.0 0.0
 0.0 0.0 0.0
 0.0 0.0 0.0
 0.0 0.0 0.0
 0.0 0.0 0.0
 0.0 0.0 0.0
 0.0 0.0 0.0
 0.0 0.0 0.0
 0.0 0.0 0.0
 0.0 0.0 0.0
 0.0 0.0 0.0
 0.0 0.0 0.0
 0.0 0.0 0.0
 0.0 0.0 0.0
 0.0 0.0 0.0
 0.0 0.0 0.0
