!!index array str
 "corona"
!entry.corona.unit.atoms table  str name  str type  int typex  int resx  int flags  int seq  int elmnt  dbl chg
 "C1" "Cg" 0 1 131072 1 6 0.433000
 "O1" "Oh" 0 1 131072 2 8 -0.639000
 "C2" "Cg" 0 1 131072 3 6 0.245000
 "O2" "Oh" 0 1 131072 4 8 -0.717000
 "C3" "Cg" 0 1 131072 5 6 0.252000
 "O3" "Oh" 0 1 131072 6 8 -0.696000
 "C4" "Cg" 0 1 131072 7 6 0.326000
 "O4" "Oh" 0 1 131072 8 8 -0.733000
 "C5" "Cg" 0 1 131072 9 6 0.276000
 "O5" "Os" 0 1 131072 10 8 -0.507000
 "C6" "Cg" 0 1 131072 11 6 0.266000
 "O6" "Oh" 0 1 131072 12 8 -0.688000
 "HO1" "Ho" 0 1 131072 13 1 0.445000
 "H1" "H2" 0 1 131072 14 1 0.000000
 "H5" "H1" 0 1 131072 15 1 0.000000
 "H2" "H1" 0 1 131072 16 1 0.000000
 "HO2" "Ho" 0 1 131072 17 1 0.446000
 "H3" "H1" 0 1 131072 18 1 0.000000
 "HO3" "Ho" 0 1 131072 19 1 0.431000
 "H4" "H1" 0 1 131072 20 1 0.000000
 "HO4" "Ho" 0 1 131072 21 1 0.438000
 "H61" "H1" 0 1 131072 22 1 0.000000
 "H62" "H1" 0 1 131072 23 1 0.000000
 "HO6" "Ho" 0 1 131072 24 1 0.422000
!entry.corona.unit.atomspertinfo table  str pname  str ptype  int ptypex  int pelmnt  dbl pchg
 "C1" "Cg" 0 -1 0.000000
 "O1" "Oh" 0 -1 0.000000
 "C2" "Cg" 0 -1 0.000000
 "O2" "Oh" 0 -1 0.000000
 "C3" "Cg" 0 -1 0.000000
 "O3" "Oh" 0 -1 0.000000
 "C4" "Cg" 0 -1 0.000000
 "O4" "Oh" 0 -1 0.000000
 "C5" "Cg" 0 -1 0.000000
 "O5" "Os" 0 -1 0.000000
 "C6" "Cg" 0 -1 0.000000
 "O6" "Oh" 0 -1 0.000000
 "HO1" "Ho" 0 -1 0.000000
 "H1" "H2" 0 -1 0.000000
 "H5" "H1" 0 -1 0.000000
 "H2" "H1" 0 -1 0.000000
 "HO2" "Ho" 0 -1 0.000000
 "H3" "H1" 0 -1 0.000000
 "HO3" "Ho" 0 -1 0.000000
 "H4" "H1" 0 -1 0.000000
 "HO4" "Ho" 0 -1 0.000000
 "H61" "H1" 0 -1 0.000000
 "H62" "H1" 0 -1 0.000000
 "HO6" "Ho" 0 -1 0.000000
!entry.corona.unit.boundbox array dbl
 -1.000000
 0.000000
 0.000000
 0.000000
 0.000000
!entry.corona.unit.childsequence single int
 2
!entry.corona.unit.connect array int
 0
 0
!entry.corona.unit.connectivity table  int atom1x  int atom2x  int flags
 1 2 1
 1 3 1
 1 10 1
 1 14 1
 2 13 1
 3 4 1
 3 5 1
 3 16 1
 4 17 1
 5 6 1
 5 7 1
 5 18 1
 6 19 1
 7 8 1
 7 9 1
 7 20 1
 8 21 1
 9 10 1
 9 11 1
 9 15 1
 11 12 1
 11 22 1
 11 23 1
 12 24 1
!entry.corona.unit.hierarchy table  str abovetype  int abovex  str belowtype  int belowx
 "U" 0 "R" 1
 "R" 1 "A" 1
 "R" 1 "A" 2
 "R" 1 "A" 3
 "R" 1 "A" 4
 "R" 1 "A" 5
 "R" 1 "A" 6
 "R" 1 "A" 7
 "R" 1 "A" 8
 "R" 1 "A" 9
 "R" 1 "A" 10
 "R" 1 "A" 11
 "R" 1 "A" 12
 "R" 1 "A" 13
 "R" 1 "A" 14
 "R" 1 "A" 15
 "R" 1 "A" 16
 "R" 1 "A" 17
 "R" 1 "A" 18
 "R" 1 "A" 19
 "R" 1 "A" 20
 "R" 1 "A" 21
 "R" 1 "A" 22
 "R" 1 "A" 23
 "R" 1 "A" 24
!entry.corona.unit.name single str
 "corona"
!entry.corona.unit.positions table  dbl x  dbl y  dbl z
 -2.284000 7.742000 9.991000
 -3.285000 8.761000 10.117000
 -1.059000 8.436000 9.492000
 -0.058000 7.440000 9.406000
 -1.352000 9.046000 8.083000
 -0.102000 9.577000 7.571000
 -1.831000 7.964000 7.142000
 -2.181000 8.586000 5.899000
 -3.075000 7.338000 7.726000
 -2.784000 6.767000 9.022000
 -3.618000 6.159000 6.900000
 -2.644000 5.130000 6.771000
 -4.055000 8.587000 10.380000
 -2.086000 7.271000 10.954000
 -3.850000 8.098000 7.830000
 -0.762000 9.221000 10.187000
 0.094000 7.041000 10.310000
 -2.102000 9.833000 8.162000
 0.576000 8.844000 7.520000
 -1.055000 7.211000 7.002000
 -2.544000 7.896000 5.272000
 -4.383000 5.626000 7.368000
 -3.778000 6.382000 5.893000
 -3.022000 4.378000 6.231000
!entry.corona.unit.residueconnect table  int c1x  int c2x  int c3x  int c4x  int c5x  int c6x
 0 0 0 0 0 0
!entry.corona.unit.residues table  str name  int seq  int childseq  int startatomx  str restype  int imagingx
 "CWK" 1 25 1 "?" 0
!entry.corona.unit.solventcap array dbl
 -1.000000
 0.0
 0.0
 0.0
 0.0
!entry.corona.unit.velocities table  dbl x  dbl y  dbl z
 0.0 0.0 0.0
 0.0 0.0 0.0
 0.0 0.0 0.0
 0.0 0.0 0.0
 0.0 0.0 0.0
 0.0 0.0 0.0
 0.0 0.0 0.0
 0.0 0.0 0.0
 0.0 0.0 0.0
 0.0 0.0 0.0
 0.0 0.0 0.0
 0.0 0.0 0.0
 0.0 0.0 0.0
 0.0 0.0 0.0
 0.0 0.0 0.0
 0.0 0.0 0.0
 0.0 0.0 0.0
 0.0 0.0 0.0
 0.0 0.0 0.0
 0.0 0.0 0.0
 0.0 0.0 0.0
 0.0 0.0 0.0
 0.0 0.0 0.0
 0.0 0.0 0.0
